<svg viewBox="0 0 98 70" fill="none" xmlns="http://www.w3.org/2000/svg">
<path fill-rule="evenodd" clip-rule="evenodd" d="M97.0516 40.5853C95.826 41.8081 93.8125 41.8081 92.5872 40.5853C91.3617 39.3625 91.3617 37.3535 92.5872 36.1307C93.8125 34.9079 95.826 34.9079 97.0516 36.1307C98.2771 37.3535 98.2771 39.3625 97.0516 40.5853ZM82.7247 54.8126C81.4991 56.0354 79.4859 56.0354 78.2603 54.8126C77.0348 53.5898 77.0348 51.5808 78.2603 50.358C79.4859 49.1352 81.4991 49.1352 82.7247 50.358C83.9502 51.5808 83.9502 53.5898 82.7247 54.8126ZM68.3981 54.8126C67.1726 56.0354 65.1591 56.0354 63.9338 54.8126C62.7083 53.5898 62.7083 51.5809 63.9338 50.3581C65.1591 49.1353 67.1726 49.1353 68.3981 50.3581C69.6237 51.5809 69.6237 53.5898 68.3981 54.8126ZM92.5872 54.8126C93.8125 56.0354 95.826 56.0354 97.0516 54.8126C98.2771 53.5898 98.2771 51.5808 97.0516 50.358C95.826 49.1352 93.8125 49.1352 92.5872 50.358C91.3617 51.5808 91.3617 53.5898 92.5872 54.8126ZM63.9338 69.04C65.1591 70.2628 67.1726 70.2628 68.3981 69.04C69.6237 67.8172 69.6237 65.8083 68.3981 64.5855C67.1726 63.3627 65.1591 63.3627 63.9338 64.5855C62.7083 65.8083 62.7083 67.8172 63.9338 69.04ZM82.7247 69.0401C81.4991 70.2629 79.4859 70.2629 78.2603 69.0401C77.0348 67.8173 77.0348 65.8084 78.2603 64.5856C79.4859 63.3628 81.4991 63.3628 82.7247 64.5856C83.9502 65.8084 83.9502 67.8173 82.7247 69.0401ZM92.5872 69.0401C93.8125 70.2629 95.826 70.2629 97.0516 69.0401C98.2771 67.8173 98.2771 65.8084 97.0516 64.5856C95.826 63.3628 93.8125 63.3628 92.5872 64.5856C91.3617 65.8084 91.3617 67.8173 92.5872 69.0401Z" fill="#B6CCBD"/>
<path fill-rule="evenodd" clip-rule="evenodd" d="M36.4684 54.8461H42.6661V43.6227H36.4684V54.8461ZM15.2134 54.8461H21.4111V43.6227H15.2134V54.8461ZM50.4149 22.0238L28.9107 12.9027L7.40684 22.0238L0 42.28H0.0462012V69.9985H28.0625L28.9073 69.9999H28.9107H28.9144L29.7588 69.9985H46.2067H57.7766V63.9539V42.28H57.8217L50.4149 22.0238Z" fill="#C3D600"/>
<path fill-rule="evenodd" clip-rule="evenodd" d="M56.4244 36.3599C46.3225 36.3599 38.1333 28.2205 38.1333 18.18C38.1333 8.13945 46.3225 0 56.4244 0C66.5263 0 74.7155 8.13945 74.7155 18.18C74.7155 22.2636 73.3609 26.0327 71.0739 29.0677L83.1656 41.0859L79.4702 44.7588L67.3785 32.7406C64.325 35.0136 60.5329 36.3599 56.4244 36.3599ZM56.4246 31.1655C63.6403 31.1655 69.4897 25.3516 69.4897 18.1798C69.4897 11.008 63.6403 5.19409 56.4246 5.19409C49.209 5.19409 43.3596 11.008 43.3596 18.1798C43.3596 25.3516 49.209 31.1655 56.4246 31.1655Z" fill="#FF5D3E"/>
</svg>
