<svg viewBox="0 0 273 199" fill="none" xmlns="http://www.w3.org/2000/svg">
<path fill-rule="evenodd" clip-rule="evenodd" d="M273 56.4675C273 25.2812 245.649 0 211.909 0C192.965 0 176.035 7.97205 164.83 20.4827L144.824 38.9747L120.41 16.4101L120.365 16.4504C109.318 6.28445 94.0882 0 77.2684 0C43.5303 0 16.1776 25.2812 16.1776 56.4675C16.1776 72.6356 23.5404 87.2057 35.3224 97.5001L144.649 198.553L144.824 198.392L144.998 198.553L255.645 96.2785L255.432 96.0813C266.293 85.887 273 71.9038 273 56.4675Z" fill="#D6C5FF"/>
<path fill-rule="evenodd" clip-rule="evenodd" d="M90.2609 109.384V65.5138H36.4321V94.5964H0V198.92H145.219V109.384H90.2609ZM20.3808 125.724H35.667V110.376H20.3808V125.724ZM52.2271 158.78H36.9409V143.432H52.2271V158.78Z" fill="#052286"/>
<path fill-rule="evenodd" clip-rule="evenodd" d="M110.782 103.154H110.778L102.851 143.184C102.425 145.019 102.195 146.921 102.195 148.875C102.195 161.252 111.196 171.655 123.401 174.666V198.92H137.94V174.666C150.145 171.655 159.147 161.252 159.147 148.875C159.147 147.171 158.969 145.508 158.643 143.893H158.871L150.564 103.154H150.559C149.44 93.792 140.965 86.5128 130.671 86.5128C120.376 86.5128 111.901 93.792 110.782 103.154ZM165.774 139.984C164.59 142.909 163.937 146.076 163.937 149.387C163.937 161.725 172.938 172.098 185.142 175.098V198.92H199.682V175.098C211.887 172.098 220.889 161.726 220.889 149.387C220.889 146.808 220.488 144.318 219.754 141.959H219.762L219.665 141.667C219.625 141.542 219.583 141.417 219.541 141.292L211.631 117.57C211.561 117.348 211.488 117.126 211.41 116.906L211.341 116.7H211.335C208.626 109.373 201.181 104.107 192.413 104.107C183.576 104.107 176.083 109.456 173.428 116.872H173.422L173.357 117.068C173.314 117.193 173.274 117.317 173.233 117.443L165.774 139.984Z" fill="#00ADBB"/>
</svg>
