<svg viewBox="0 0 93 72" fill="none" xmlns="http://www.w3.org/2000/svg">
<path fill-rule="evenodd" clip-rule="evenodd" d="M35.0586 0.455078V20.3578L12.0665 26.6671V71.2803H27.3189V51.9423H34.8098V71.2803H35.0586H41.3351H82.1108V13.9679L35.0586 0.455078Z" fill="#144225"/>
<path fill-rule="evenodd" clip-rule="evenodd" d="M24.7215 27.5881C24.7215 20.1531 18.7571 14.1792 11.5738 14.6457C5.30834 15.0529 0.255613 20.4858 0.00976796 27.0666C-0.0712247 29.2326 0.354524 31.2859 1.17269 33.1071C1.95216 34.8423 1.96972 36.865 1.18631 38.5983C0.425483 40.2804 9.18447e-05 42.1618 9.18447e-05 44.1474C9.18447e-05 50.2961 4.0809 55.4422 9.55508 56.7758V71.2803H15.1665V56.7758C20.6407 55.4422 24.7215 50.2961 24.7215 44.1474C24.7215 42.1618 24.2961 40.2812 23.5356 38.599C22.7569 36.8759 22.7569 34.8595 23.5356 33.1364C24.2961 31.4543 24.7215 29.5733 24.7215 27.5881Z" fill="#B6CCBD"/>
<path fill-rule="evenodd" clip-rule="evenodd" d="M93 7.8114C93 3.74859 89.8344 0.455078 85.9293 0.455078C83.7367 0.455078 81.7773 1.49364 80.4804 3.12347L78.1649 5.53251L75.3392 2.59291L75.334 2.59816C74.0554 1.27379 72.2927 0.455078 70.346 0.455078C66.4411 0.455078 63.2753 3.74859 63.2753 7.8114C63.2753 9.91771 64.1275 11.8158 65.4912 13.1569L78.1447 26.3217L78.1649 26.3006L78.1851 26.3217L90.9914 12.9978L90.9667 12.9721C92.2237 11.644 93 9.82237 93 7.8114Z" fill="#FF8C68"/>
</svg>
