<svg viewBox="0 0 400 352" version="1.1" xmlns="http://www.w3.org/2000/svg" xmlns:xlink="http://www.w3.org/1999/xlink">
    <g id="Page-1" stroke="none" stroke-width="1" fill="none" fill-rule="evenodd">
        <g id="image" fill-rule="nonzero">
            <path d="M162.888,0.0823 C238.452,0.0823 299.712,61.7905 299.712,137.918 C299.712,167.749 290.274,195.34 274.286,217.901 L274.292,217.901 L274.213,218.006 C272.128,220.936 269.945,223.792 267.646,226.549 L162.108,351.918 L105.042,283.158 C114.784,273.974 120.866,260.95 120.866,246.505 C120.866,218.692 98.3185,196.144 70.505,196.144 C60.3562,196.144 50.9085,199.146 43.0016,204.311 C32.2141,184.623 26.0619,162 26.0619,137.918 C26.0619,61.7905 87.3194,0.0823 162.888,0.0823 Z M181.347,124.964 C171.211,114.826 154.562,114.826 144.427,124.964 C134.291,135.097 134.291,151.748 144.427,161.883 C154.562,172.018 171.211,172.018 181.347,161.883 C191.482,151.748 191.482,135.097 181.347,124.964 L181.347,124.964 Z" id="Shape" fill="#B6CCBD"></path>
            <path d="M244.055,143.423 C261.622,143.423 276.084,156.825 278,174.063 L291.526,247.765 C292.253,251.143 292.646,254.646 292.646,258.243 C292.646,281.031 277.286,300.185 256.46,305.728 L256.46,350.384 L231.65,350.384 L231.65,305.728 C210.824,300.185 195.464,281.031 195.464,258.243 C195.464,255.106 195.768,252.043 196.324,249.07 L195.934,249.07 L210.118,174.063 C212.027,156.825 226.489,143.423 244.055,143.423 L244.055,143.423 Z M350.919,175.817 C365.997,175.817 378.784,185.665 383.324,199.32 L383.435,199.68 C383.508,199.91 383.577,200.139 383.647,200.371 L396.374,241.873 C398.395,247.258 399.51,253.09 399.51,259.185 C399.51,281.903 384.149,301 363.325,306.524 L363.325,350.384 L338.514,350.384 L338.514,306.524 C317.688,301 302.328,281.904 302.328,259.185 C302.328,254.436 303.011,249.852 304.25,245.509 L304.415,244.972 C304.484,244.741 304.556,244.51 304.628,244.281 L318.124,200.605 C318.244,200.195 318.37,199.787 318.502,199.382 L318.63,199.003 C323.252,185.512 335.957,175.817 350.919,175.817 L350.919,175.817 Z" id="Shape" fill="#052286"></path>
            <path d="M70.505,176 C109.444,176 141.01,207.566 141.01,246.505 C141.01,262.356 135.779,276.985 126.95,288.76 L174.828,336.907 L162.108,351.918 L112.767,302.945 C100.99,311.777 86.3588,317.01 70.505,317.01 C31.5662,317.01 0,285.444 0,246.505 C0,207.566 31.5662,176 70.505,176 Z M70.505,196.144 C42.6916,196.144 20.1443,218.692 20.1443,246.505 C20.1443,274.318 42.6916,296.866 70.505,296.866 C98.3185,296.866 120.866,274.318 120.866,246.505 C120.866,218.692 98.3185,196.144 70.505,196.144 Z" id="Shape" fill="#FF5D3E"></path>
        </g>
    </g>
</svg>